<?xml version="1.0" encoding="UTF-8" standalone="no"?>
<svg width="1848" height="200" viewBox="0 0 1848 200" xmlns="http://www.w3.org/2000/svg" xmlns:xlink="http://www.w3.org/1999/xlink">
  <title>ACCESS OUR FREELANCER HUB</title>
  <desc>Find expert talent for your project</desc>
  
  <!-- Purple gradient background -->
  <defs>
    <linearGradient id="purpleGradient" x1="0%" y1="0%" x2="100%" y2="0%">
      <stop offset="0%" style="stop-color:#1a1330;stop-opacity:1" />
      <stop offset="100%" style="stop-color:#2a1a40;stop-opacity:1" />
    </linearGradient>
    
    <!-- Diagonal lines pattern for the left side -->
    <pattern id="diagonalLines" width="10" height="10" patternTransform="rotate(45)" patternUnits="userSpaceOnUse">
      <line x1="0" y1="0" x2="0" y2="10" stroke="#5a4a70" stroke-width="1" />
    </pattern>
    
    <!-- Circular mask for the people image -->
    <clipPath id="circleClip">
      <circle cx="1630" cy="100" r="70" />
    </clipPath>
    
    <!-- Cyan gradient for the teal shapes -->
    <linearGradient id="cyanGradient" x1="0%" y1="0%" x2="100%" y2="100%">
      <stop offset="0%" style="stop-color:#06b6d4;stop-opacity:1" />
      <stop offset="100%" style="stop-color:#0ea5e9;stop-opacity:1" />
    </linearGradient>
  </defs>
  
  <!-- Main background -->
  <rect width="1848" height="200" fill="url(#purpleGradient)" />
  
  <!-- Diagonal lines overlay on left side -->
  <rect x="0" y="0" width="800" height="200" fill="url(#diagonalLines)" opacity="0.15" />
  
  <!-- Main text - ACCESS OUR FREELANCER HUB -->
  <text x="220" y="70" font-family="Arial, sans-serif" font-weight="bold" font-size="48" fill="white">
    ACCESS OUR FREELANCER HUB
  </text>
  
  <!-- Subtitle - FIND EXPERT TALENT FOR YOUR PROJECT -->
  <text x="220" y="125" font-family="Arial, sans-serif" font-weight="bold" font-size="38" fill="#06b6d4">
    FIND EXPERT TALENT FOR YOUR
  </text>
  <text x="220" y="165" font-family="Arial, sans-serif" font-weight="bold" font-size="38" fill="#06b6d4">
    PROJECT
  </text>
  
  <!-- Cyan/teal V shape on right side -->
  <path d="M 1440,0 L 1848,0 L 1848,200 L 1440,200 L 1530,100 Z" fill="url(#cyanGradient)" />
  
  <!-- People image placeholder (would be replaced with an actual image in a production SVG) -->
  <!-- This is represented as a circle with a darker background -->
  <circle cx="1630" cy="100" r="72" fill="#ffffff" stroke="#06b6d4" stroke-width="4" />
  
  <!-- Replace the placeholder with an SVG illustration of freelancers -->
  <g clip-path="url(#circleClip)">
    <!-- Background gradient for the freelancer illustration -->
    <rect x="1560" y="30" width="140" height="140" fill="#f0f9ff" />
    
    <!-- Stylized freelancer team illustration -->
    <!-- Person 1 (center) -->
    <circle cx="1630" cy="70" r="20" fill="#0891b2" /> <!-- Head -->
    <rect x="1620" y="90" width="20" height="35" rx="10" fill="#0891b2" /> <!-- Body -->
    
    <!-- Person 2 (left) -->
    <circle cx="1600" cy="75" r="16" fill="#0e7490" /> <!-- Head -->
    <rect x="1592" y="91" width="16" height="30" rx="8" fill="#0e7490" /> <!-- Body -->
    
    <!-- Person 3 (right) -->
    <circle cx="1660" cy="75" r="16" fill="#06b6d4" /> <!-- Head -->
    <rect x="1652" y="91" width="16" height="30" rx="8" fill="#06b6d4" /> <!-- Body -->
    
    <!-- Person 4 (bottom left) -->
    <circle cx="1610" cy="115" r="16" fill="#0284c7" /> <!-- Head -->
    <rect x="1602" y="131" width="16" height="25" rx="8" fill="#0284c7" /> <!-- Body -->
    
    <!-- Person 5 (bottom right) -->
    <circle cx="1650" cy="115" r="16" fill="#2563eb" /> <!-- Head -->
    <rect x="1642" y="131" width="16" height="25" rx="8" fill="#2563eb" /> <!-- Body -->
    
    <!-- Add laptop/work elements -->
    <rect x="1615" y="125" width="30" height="20" rx="2" fill="#334155" /> <!-- Laptop base -->
    <rect x="1615" y="120" width="30" height="15" rx="2" fill="#475569" transform="skewX(-10)" /> <!-- Laptop screen -->
    
    <!-- Add some abstract connecting lines to represent network/collaboration -->
    <line x1="1610" y1="80" x2="1625" y2="90" stroke="#0ea5e9" stroke-width="2" />
    <line x1="1650" y1="80" x2="1635" y2="90" stroke="#0ea5e9" stroke-width="2" />
    <line x1="1615" y1="110" x2="1625" y2="100" stroke="#0ea5e9" stroke-width="2" />
    <line x1="1645" y1="110" x2="1635" y2="100" stroke="#0ea5e9" stroke-width="2" />
  </g>
</svg> 