<svg xmlns="http://www.w3.org/2000/svg" xmlns:xlink="http://www.w3.org/1999/xlink" width="500" zoomAndPan="magnify" viewBox="0 0 375 374.999991" height="500" preserveAspectRatio="xMidYMid meet" version="1.2"><defs><clipPath id="37c0463cae"><path d="M 58.707031 9.546875 L 207.992188 9.546875 L 207.992188 365.609375 L 58.707031 365.609375 Z M 58.707031 9.546875 "/></clipPath><clipPath id="beca4db8e3"><path d="M 180 201.316406 L 217.882812 201.316406 L 217.882812 265.878906 L 180 265.878906 Z M 180 201.316406 "/></clipPath><clipPath id="448a381d80"><path d="M 141 221.097656 L 172 221.097656 L 172 265.878906 L 141 265.878906 Z M 141 221.097656 "/></clipPath><clipPath id="5fdc0006ec"><path d="M 88.203125 11.195312 L 315.957031 11.195312 L 315.957031 265.878906 L 88.203125 265.878906 Z M 88.203125 11.195312 "/></clipPath></defs><g id="ba993c9281"><g clip-rule="nonzero" clip-path="url(#37c0463cae)"><path style=" stroke:none;fill-rule:nonzero;fill:#51159d;fill-opacity:1;" d="M 79.886719 24.914062 L 92.980469 248.414062 C 93.011719 248.953125 93.015625 249.496094 92.984375 250.035156 C 92.953125 250.578125 92.894531 251.113281 92.804688 251.648438 C 92.714844 252.183594 92.597656 252.707031 92.449219 253.230469 C 92.300781 253.75 92.125 254.261719 91.917969 254.761719 C 91.710938 255.261719 91.480469 255.753906 91.21875 256.226562 C 90.957031 256.699219 90.671875 257.160156 90.359375 257.605469 C 90.050781 258.046875 89.714844 258.472656 89.355469 258.878906 C 88.996094 259.28125 88.617188 259.667969 88.214844 260.03125 C 87.8125 260.394531 87.394531 260.730469 86.953125 261.046875 C 86.511719 261.363281 86.054688 261.65625 85.582031 261.917969 C 85.109375 262.183594 84.625 262.421875 84.128906 262.632812 C 83.628906 262.84375 83.121094 263.027344 82.601562 263.179688 C 82.082031 263.332031 81.554688 263.457031 81.023438 263.550781 C 80.488281 263.648438 79.949219 263.714844 79.414062 263.746094 C 78.871094 263.785156 78.332031 263.789062 77.789062 263.761719 C 77.25 263.738281 76.710938 263.679688 76.175781 263.59375 L 75.585938 263.488281 C 74.855469 263.371094 74.117188 263.308594 73.371094 263.304688 C 72.628906 263.300781 71.890625 263.355469 71.15625 263.460938 C 70.421875 263.570312 69.699219 263.738281 68.988281 263.957031 C 68.277344 264.175781 67.589844 264.453125 66.921875 264.777344 C 66.253906 265.101562 65.617188 265.476562 65.003906 265.902344 C 64.394531 266.324219 63.824219 266.792969 63.285156 267.304688 C 62.746094 267.820312 62.25 268.367188 61.792969 268.957031 C 61.339844 269.546875 60.9375 270.164062 60.578125 270.816406 C 60.21875 271.464844 59.914062 272.140625 59.65625 272.839844 C 59.402344 273.539062 59.203125 274.25 59.054688 274.980469 C 58.910156 275.707031 58.820312 276.445312 58.789062 277.1875 C 58.753906 277.929688 58.78125 278.667969 58.859375 279.40625 C 58.941406 280.144531 59.078125 280.875 59.273438 281.589844 C 59.464844 282.308594 59.710938 283.007812 60.011719 283.6875 C 60.3125 284.367188 60.660156 285.019531 61.0625 285.644531 C 61.464844 286.273438 61.910156 286.863281 62.398438 287.421875 L 126.917969 360.503906 C 127.277344 360.910156 127.65625 361.292969 128.054688 361.65625 C 128.457031 362.019531 128.875 362.359375 129.3125 362.671875 C 129.753906 362.988281 130.207031 363.277344 130.679688 363.542969 C 131.148438 363.808594 131.632812 364.046875 132.128906 364.257812 C 132.628906 364.46875 133.136719 364.652344 133.652344 364.808594 C 134.171875 364.960938 134.699219 365.085938 135.226562 365.179688 C 135.761719 365.277344 136.292969 365.34375 136.835938 365.378906 C 137.375 365.417969 137.914062 365.421875 138.453125 365.398438 C 138.992188 365.375 139.527344 365.320312 140.0625 365.234375 C 140.597656 365.152344 141.125 365.039062 141.644531 364.894531 C 142.167969 364.753906 142.679688 364.582031 143.179688 364.382812 C 143.683594 364.183594 144.171875 363.953125 144.648438 363.703125 C 145.125 363.445312 145.585938 363.167969 146.03125 362.859375 C 146.476562 362.554688 146.902344 362.226562 147.3125 361.871094 C 147.722656 361.519531 148.109375 361.144531 148.476562 360.75 C 148.84375 360.351562 149.1875 359.933594 149.507812 359.5 L 205.167969 283.742188 C 205.570312 283.183594 205.9375 282.605469 206.261719 282 C 206.585938 281.390625 206.867188 280.765625 207.101562 280.117188 C 207.339844 279.46875 207.523438 278.808594 207.667969 278.136719 C 207.808594 277.460938 207.902344 276.78125 207.945312 276.09375 C 207.992188 275.40625 207.984375 274.71875 207.933594 274.035156 C 207.878906 273.347656 207.777344 272.667969 207.628906 271.996094 C 207.476562 271.324219 207.28125 270.664062 207.039062 270.023438 C 206.792969 269.378906 206.503906 268.753906 206.171875 268.152344 C 205.84375 267.550781 205.46875 266.972656 205.054688 266.421875 C 204.640625 265.871094 204.191406 265.355469 203.699219 264.867188 C 203.210938 264.382812 202.695312 263.933594 202.140625 263.523438 C 201.589844 263.109375 201.011719 262.742188 200.40625 262.410156 C 199.800781 262.078125 199.175781 261.796875 198.53125 261.554688 C 197.886719 261.3125 197.230469 261.121094 196.558594 260.972656 C 195.882812 260.828125 195.203125 260.726562 194.519531 260.679688 C 193.832031 260.628906 193.144531 260.625 192.457031 260.675781 L 187.601562 261.011719 C 187.085938 261.050781 186.570312 261.054688 186.058594 261.035156 C 185.539062 261.015625 185.027344 260.96875 184.515625 260.894531 C 184.003906 260.816406 183.5 260.714844 183 260.585938 C 182.5 260.457031 182.007812 260.300781 181.527344 260.121094 C 181.039062 259.941406 180.566406 259.734375 180.105469 259.503906 C 179.648438 259.269531 179.199219 259.015625 178.765625 258.734375 C 178.332031 258.453125 177.914062 258.152344 177.511719 257.828125 C 177.109375 257.503906 176.726562 257.160156 176.359375 256.796875 C 175.996094 256.429688 175.652344 256.046875 175.328125 255.644531 C 175.003906 255.242188 174.699219 254.824219 174.421875 254.390625 C 174.140625 253.957031 173.886719 253.507812 173.65625 253.046875 C 173.421875 252.585938 173.214844 252.113281 173.035156 251.632812 C 172.851562 251.148438 172.699219 250.65625 172.570312 250.15625 C 172.441406 249.65625 172.335938 249.148438 172.261719 248.640625 C 172.1875 248.128906 172.140625 247.617188 172.121094 247.101562 C 172.097656 246.585938 172.105469 246.066406 172.140625 245.550781 L 186.457031 25.003906 C 186.488281 24.511719 186.5 24.015625 186.480469 23.523438 C 186.460938 23.027344 186.417969 22.535156 186.351562 22.046875 C 186.28125 21.554688 186.191406 21.066406 186.070312 20.585938 C 185.953125 20.105469 185.8125 19.632812 185.644531 19.167969 C 185.476562 18.699219 185.289062 18.242188 185.074219 17.796875 C 184.859375 17.351562 184.625 16.917969 184.367188 16.496094 C 184.109375 16.070312 183.832031 15.664062 183.53125 15.269531 C 183.230469 14.875 182.914062 14.496094 182.574219 14.136719 C 182.234375 13.773438 181.882812 13.429688 181.507812 13.105469 C 181.136719 12.78125 180.746094 12.476562 180.339844 12.191406 C 179.933594 11.90625 179.519531 11.640625 179.085938 11.398438 C 178.652344 11.160156 178.210938 10.9375 177.757812 10.738281 C 177.304688 10.542969 176.839844 10.371094 176.367188 10.21875 C 175.894531 10.074219 175.417969 9.945312 174.933594 9.847656 C 174.449219 9.746094 173.960938 9.667969 173.46875 9.621094 C 172.976562 9.566406 172.484375 9.542969 171.988281 9.542969 L 94.371094 9.542969 C 93.878906 9.542969 93.386719 9.566406 92.898438 9.621094 C 92.40625 9.667969 91.917969 9.742188 91.4375 9.84375 C 90.957031 9.945312 90.480469 10.066406 90.007812 10.21875 C 89.535156 10.367188 89.074219 10.539062 88.621094 10.734375 C 88.171875 10.929688 87.730469 11.148438 87.296875 11.386719 C 86.867188 11.628906 86.449219 11.890625 86.046875 12.171875 C 85.644531 12.453125 85.253906 12.757812 84.882812 13.082031 C 84.511719 13.402344 84.152344 13.746094 83.816406 14.101562 C 83.476562 14.460938 83.15625 14.835938 82.855469 15.226562 C 82.558594 15.617188 82.277344 16.023438 82.019531 16.445312 C 81.761719 16.867188 81.523438 17.296875 81.308594 17.742188 C 81.09375 18.183594 80.902344 18.636719 80.734375 19.101562 C 80.566406 19.566406 80.421875 20.035156 80.300781 20.515625 C 80.179688 20.992188 80.085938 21.476562 80.011719 21.964844 C 79.941406 22.449219 79.894531 22.941406 79.875 23.433594 C 79.855469 23.925781 79.855469 24.417969 79.886719 24.914062 Z M 79.886719 24.914062 "/></g><g clip-rule="nonzero" clip-path="url(#beca4db8e3)"><path style=" stroke:none;fill-rule:nonzero;fill:#febc10;fill-opacity:1;" d="M 187.648438 248.566406 C 184.828125 257.972656 188.644531 263.425781 190.179688 265.800781 L 217.339844 265.800781 C 217.90625 256.902344 209.378906 257.503906 209.378906 257.503906 C 203.910156 231.402344 213.78125 202.289062 213.78125 202.289062 C 209.714844 199.242188 198.878906 206.695312 193.796875 210.417969 C 188.714844 214.144531 180.425781 217.851562 180.425781 217.851562 C 180.425781 217.851562 191.714844 235.015625 187.648438 248.566406 Z M 187.648438 248.566406 "/></g><g clip-rule="nonzero" clip-path="url(#448a381d80)"><path style=" stroke:none;fill-rule:nonzero;fill:#febc10;fill-opacity:1;" d="M 143.183594 265.800781 L 171.515625 265.800781 C 173.363281 257.171875 163.648438 257.164062 163.648438 257.164062 C 172.117188 244.292969 171.441406 221.257812 171.441406 221.257812 C 160.261719 225.660156 148.40625 225.660156 148.40625 225.660156 C 144.339844 234.46875 141.292969 237.859375 141.292969 237.859375 C 145.957031 251.601562 144.394531 261.429688 143.183594 265.800781 Z M 143.183594 265.800781 "/></g><g clip-rule="nonzero" clip-path="url(#5fdc0006ec)"><path style=" stroke:none;fill-rule:nonzero;fill:#febc10;fill-opacity:1;" d="M 88.507812 265.800781 L 125.597656 265.800781 C 126.109375 255.03125 116.226562 256.824219 116.226562 256.824219 C 142.308594 239.210938 146.710938 222.613281 146.710938 222.613281 C 146.710938 222.613281 168.730469 223.628906 192.441406 207.710938 C 216.152344 191.789062 221.914062 194.160156 222.589844 224.984375 C 223.117188 248.917969 229.152344 261.410156 231.828125 265.800781 L 267.304688 265.800781 C 266.835938 255.539062 255.109375 256.148438 255.109375 256.148438 C 243.589844 247.679688 252.398438 225.324219 252.398438 225.324219 C 268.660156 187.386719 248.671875 154.527344 260.867188 127.089844 C 273.0625 99.652344 267.304688 106.425781 274.078125 84.746094 C 280.851562 63.066406 302.53125 65.4375 311.339844 62.390625 C 320.144531 59.339844 314.386719 50.875 314.386719 50.875 C 314.386719 50.875 301.175781 56.292969 293.726562 45.789062 C 286.273438 35.289062 308.628906 22.417969 308.628906 22.417969 C 302.871094 9.886719 301.515625 9.546875 295.078125 13.613281 C 288.644531 17.675781 277.464844 24.113281 267.300781 23.097656 C 257.140625 22.078125 253.753906 24.789062 253.753906 24.789062 C 229.027344 35.292969 223.605469 51.550781 216.152344 62.050781 C 208.703125 72.550781 188.714844 64.421875 180.925781 86.101562 C 173.132812 107.78125 149.082031 115.234375 118.257812 138.941406 C 87.429688 162.65625 101.160156 184.316406 99.804688 220.226562 C 98.683594 249.867188 93.707031 252.402344 88.507812 265.800781 Z M 88.507812 265.800781 "/></g><path style=" stroke:none;fill-rule:nonzero;fill:#febc10;fill-opacity:1;" d="M 234.65625 39.058594 C 234.65625 39.058594 230.082031 31.691406 234.910156 24.449219 C 234.910156 24.449219 237.195312 19.625 239.609375 23.816406 C 242.023438 28.007812 249.136719 29.277344 249.519531 29.152344 Z M 234.65625 39.058594 "/></g></svg>