<svg xmlns="http://www.w3.org/2000/svg" xmlns:xlink="http://www.w3.org/1999/xlink" width="500" zoomAndPan="magnify" viewBox="0 0 375 374.999991" height="500" preserveAspectRatio="xMidYMid meet" version="1.0"><defs><clipPath id="81c40a0783"><path d="M 105.386719 131 L 354.921875 131 L 354.921875 270.269531 L 105.386719 270.269531 Z M 105.386719 131 " clip-rule="nonzero"/></clipPath><clipPath id="a2123f7407"><path d="M 19.800781 104.746094 L 355.050781 104.746094 L 355.050781 113 L 19.800781 113 Z M 19.800781 104.746094 " clip-rule="nonzero"/></clipPath><clipPath id="5494c18dfb"><path d="M 28.476562 121 L 95.273438 121 L 95.273438 270.238281 L 28.476562 270.238281 Z M 28.476562 121 " clip-rule="nonzero"/></clipPath></defs><g clip-path="url(#81c40a0783)"><path fill="#ed1c24" d="M 118.734375 171.960938 C 119.140625 171.425781 119.394531 170.484375 119.230469 169.859375 C 118.757812 168.066406 119.296875 166.605469 120.328125 165.253906 C 122.367188 162.578125 124.449219 159.925781 126.542969 157.289062 C 128.28125 155.105469 130.058594 152.949219 131.832031 150.792969 C 133.039062 149.324219 133.808594 147.699219 134.140625 145.796875 C 134.6875 142.683594 136.042969 142.105469 138.785156 143.75 C 140.933594 145.03125 143.144531 145.984375 145.699219 145.496094 C 148.652344 144.929688 151.59375 144.277344 154.535156 143.664062 C 157.910156 142.957031 161.269531 142.148438 164.664062 141.578125 C 166.074219 141.34375 167.574219 141.554688 169.027344 141.683594 C 171.0625 141.859375 172.921875 141.417969 174.519531 140.171875 C 176.898438 138.320312 179.230469 136.417969 181.535156 134.472656 C 183.285156 133 185.164062 131.808594 187.320312 131.03125 L 193.753906 131.03125 C 197.667969 131.777344 201.257812 133.570312 205.027344 134.769531 C 205.472656 134.910156 206.117188 135.195312 206.203125 135.53125 C 206.503906 136.710938 207.363281 136.628906 208.1875 136.574219 C 213.980469 136.191406 219.777344 135.886719 225.554688 135.34375 C 236.761719 134.292969 247.957031 133.117188 259.152344 131.953125 C 261.34375 131.726562 263.507812 131.1875 265.699219 131.058594 C 266.882812 130.992188 268.089844 131.574219 269.300781 131.722656 C 274.9375 132.425781 280.570312 133.152344 285.949219 135.058594 C 292.285156 137.304688 297.808594 141.027344 303.214844 144.910156 C 305.410156 146.488281 307.621094 148.085938 309.5625 149.953125 C 311.292969 151.625 312.980469 153.496094 314.121094 155.589844 C 316.246094 159.496094 318.878906 162.929688 321.949219 166.109375 C 324.070312 168.304688 326.050781 170.648438 327.917969 173.070312 C 331.101562 177.183594 332.570312 182.058594 333.15625 187.109375 C 334.578125 199.339844 339.300781 210.433594 344.449219 221.417969 C 347.699219 228.363281 350.851562 235.347656 354 242.335938 C 354.390625 243.203125 354.707031 244.101562 355.019531 245.019531 L 355.019531 252.917969 C 353.824219 256.628906 351.757812 259.917969 349.707031 263.210938 C 348.59375 265 346.820312 265.65625 344.890625 265.921875 C 339.511719 266.664062 334.109375 266.792969 328.703125 266.257812 C 325.207031 265.910156 324.421875 264.109375 326.273438 261.082031 C 327.164062 259.617188 328.410156 258.898438 330.089844 258.835938 C 330.617188 258.820312 331.164062 258.871094 331.679688 258.769531 C 332.390625 258.632812 333.589844 258.527344 333.6875 258.164062 C 333.988281 257.082031 334.992188 255.941406 333.871094 254.71875 C 332.53125 253.246094 331.351562 251.613281 329.941406 250.21875 C 322.15625 242.511719 314.292969 234.882812 306.523438 227.15625 C 304.746094 225.386719 303.175781 223.386719 301.628906 221.394531 C 300.351562 219.746094 299.355469 219.207031 297.566406 220.324219 C 295.179688 221.8125 292.949219 223.585938 290.777344 225.390625 C 282.800781 232.015625 278.261719 240.984375 273.902344 250.113281 C 271.75 254.625 269.304688 259.007812 266.742188 263.296875 C 264.519531 267.011719 261.203125 268.835938 256.65625 268.761719 C 253.367188 268.707031 250.058594 269.449219 246.761719 269.855469 C 245.980469 269.949219 245.214844 270.105469 244.441406 270.234375 L 232.464844 270.234375 C 231.574219 269.851562 230.628906 269.570312 229.8125 269.066406 C 228.175781 268.054688 228.164062 266.382812 229.78125 265.328125 C 230.699219 264.730469 231.726562 264.292969 232.722656 263.808594 C 234.554688 262.917969 236.414062 262.085938 238.226562 261.15625 C 240.621094 259.933594 242.167969 257.894531 242.238281 255.273438 C 242.484375 245.707031 245.453125 236.71875 247.753906 227.585938 C 248.089844 226.253906 248.421875 224.921875 248.765625 223.589844 C 249.164062 222.046875 248.859375 221.578125 247.222656 221.449219 C 245.988281 221.351562 244.746094 221.339844 243.503906 221.320312 C 241.855469 221.296875 240.375 220.816406 239.039062 219.839844 C 237.644531 218.816406 236.246094 217.800781 234.824219 216.820312 C 234.242188 216.421875 233.621094 216.050781 232.96875 215.785156 C 231.871094 215.335938 231.195312 215.707031 231.152344 216.90625 C 231.097656 218.449219 231.125 220.015625 231.332031 221.546875 C 231.917969 225.933594 232.671875 230.300781 233.257812 234.691406 C 234.070312 240.820312 232.902344 246.800781 231.554688 252.726562 C 230.757812 256.207031 229.429688 259.59375 226.703125 262.027344 C 225.015625 263.527344 222.992188 264.796875 220.90625 265.671875 C 215.363281 268 209.527344 269.296875 203.519531 269.761719 C 203.433594 269.769531 203.347656 269.785156 203.257812 269.789062 C 201.503906 269.847656 199.632812 269.976562 198.75 268.046875 C 197.816406 266.003906 198.085938 263.902344 199.46875 262.15625 C 199.976562 261.511719 201.015625 261.183594 201.878906 260.941406 C 203.746094 260.40625 205.679688 260.089844 207.550781 259.558594 C 209.449219 259.019531 210.347656 257.613281 210.363281 255.671875 C 210.425781 249.792969 209.210938 244.144531 207.277344 238.628906 C 207.234375 238.503906 207.1875 238.378906 207.132812 238.253906 C 206.074219 235.992188 205.335938 235.769531 203.75 237.699219 C 200.265625 241.933594 195.410156 243.664062 190.535156 245.480469 C 185.722656 247.269531 180.964844 249.195312 176.207031 251.128906 C 175.285156 251.507812 174.441406 252.140625 173.648438 252.769531 C 172.636719 253.566406 172.519531 254.617188 173.140625 255.738281 C 173.355469 256.128906 173.53125 256.554688 173.816406 256.882812 C 176.878906 260.386719 175.8125 264.273438 174.765625 268.09375 C 174.308594 269.753906 173.273438 270.136719 171.367188 269.644531 C 168.5 268.90625 166.082031 267.34375 164.117188 265.164062 C 163.152344 264.09375 162.273438 262.863281 161.675781 261.558594 C 159.515625 256.839844 158.429688 251.84375 157.933594 246.683594 C 157.394531 241.09375 159.5 236.765625 163.878906 233.386719 C 165.699219 231.980469 167.371094 230.367188 169.214844 228.988281 C 173.632812 225.691406 174.675781 221.226562 173.753906 216.097656 C 173.039062 212.089844 172.246094 208.09375 171.402344 204.105469 C 170.207031 198.433594 167.808594 196.242188 161.851562 195.4375 C 154.832031 194.496094 147.78125 194.625 140.75 195.308594 C 135.375 195.828125 130.019531 196.558594 124.65625 197.207031 C 119.792969 197.789062 115.347656 196.535156 111.144531 194.195312 C 109.167969 193.097656 107.203125 191.984375 105.238281 190.875 L 105.238281 186.351562 C 110.578125 182.347656 114.738281 177.222656 118.734375 171.960938 " fill-opacity="1" fill-rule="nonzero"/></g><g clip-path="url(#a2123f7407)"><path stroke-linecap="butt" transform="matrix(-0.47374, -0.000000000000000076, 0.000000000000000076, -0.47397, 355.045558, 112.28472)" fill="none" stroke-linejoin="miter" d="M -0.00278004 10.004334 L 707.656307 10.004334 " stroke="#000000" stroke-width="20" stroke-opacity="1" stroke-miterlimit="4"/></g><g clip-path="url(#5494c18dfb)"><path fill="#ed1c24" d="M 45.21875 158.320312 L 45.21875 195.625 L 28.535156 195.625 L 61.902344 270.238281 L 95.273438 195.625 L 78.585938 195.625 L 78.585938 158.320312 Z M 45.21875 135.933594 L 45.21875 150.859375 L 78.585938 150.859375 L 78.585938 135.933594 Z M 45.21875 121.011719 L 45.21875 128.472656 L 78.585938 128.472656 L 78.585938 121.011719 Z M 45.21875 121.011719 " fill-opacity="1" fill-rule="nonzero"/></g></svg>