<svg xmlns="http://www.w3.org/2000/svg" viewBox="0 0 512 512" width="512" height="512">
  <rect width="512" height="512" fill="#F3BA2F" rx="256" ry="256"/>
  <path fill="#FFFFFF" d="M256 149.702l-65.345 65.345 38.901 38.901-38.901 38.901L256 358.194l65.345-65.345-38.901-38.901 38.901-38.901L256 149.702zm0-62.676l-128.021 128.02 38.901 38.902 89.12-89.12 89.12 89.12 38.901-38.901L256 87.026zM127.979 256l38.901 38.901-38.901 38.901 38.901 38.901 38.901-38.901-38.901-38.901 38.901-38.901-38.901-38.901-38.901 38.901zm256.042 0l-38.901-38.901-38.901 38.901 38.901 38.901-38.901 38.901 38.901 38.901 38.901-38.901-38.901-38.901z"/>
</svg> 