<svg xmlns="http://www.w3.org/2000/svg" xmlns:xlink="http://www.w3.org/1999/xlink" width="500" zoomAndPan="magnify" viewBox="0 0 375 374.999991" height="500" preserveAspectRatio="xMidYMid meet" version="1.2"><defs><clipPath id="7d7dff0320"><path d="M 17.175781 9.152344 L 166.75 9.152344 L 166.75 365.714844 L 17.175781 365.714844 Z M 17.175781 9.152344 "/></clipPath><clipPath id="f3d1b03c87"><path d="M 41.921875 16.359375 L 357.675781 16.359375 L 357.675781 363.878906 L 41.921875 363.878906 Z M 41.921875 16.359375 "/></clipPath></defs><g id="572f0c4ad5"><g clip-rule="nonzero" clip-path="url(#7d7dff0320)"><path style=" stroke:none;fill-rule:nonzero;fill:#51159d;fill-opacity:1;" d="M 145.480469 350.324219 L 132.367188 126.484375 C 132.332031 125.941406 132.332031 125.402344 132.363281 124.859375 C 132.390625 124.316406 132.453125 123.777344 132.542969 123.242188 C 132.632812 122.710938 132.75 122.179688 132.898438 121.660156 C 133.046875 121.140625 133.226562 120.628906 133.429688 120.125 C 133.636719 119.625 133.871094 119.132812 134.128906 118.660156 C 134.390625 118.183594 134.675781 117.722656 134.988281 117.28125 C 135.300781 116.835938 135.636719 116.410156 135.996094 116.003906 C 136.355469 115.597656 136.734375 115.214844 137.140625 114.847656 C 137.542969 114.484375 137.964844 114.144531 138.402344 113.832031 C 138.84375 113.515625 139.300781 113.222656 139.773438 112.957031 C 140.246094 112.691406 140.734375 112.453125 141.234375 112.242188 C 141.730469 112.03125 142.242188 111.847656 142.761719 111.695312 C 143.28125 111.539062 143.808594 111.417969 144.34375 111.320312 C 144.875 111.226562 145.414062 111.160156 145.957031 111.125 C 146.496094 111.089844 147.039062 111.085938 147.582031 111.109375 C 148.121094 111.136719 148.660156 111.191406 149.195312 111.277344 L 149.785156 111.386719 C 150.519531 111.503906 151.257812 111.5625 152.003906 111.570312 C 152.75 111.574219 153.488281 111.519531 154.222656 111.410156 C 154.960938 111.300781 155.683594 111.136719 156.394531 110.914062 C 157.101562 110.695312 157.792969 110.421875 158.460938 110.097656 C 159.132812 109.769531 159.769531 109.394531 160.382812 108.96875 C 160.996094 108.542969 161.566406 108.074219 162.109375 107.5625 C 162.648438 107.046875 163.144531 106.496094 163.597656 105.910156 C 164.054688 105.320312 164.460938 104.699219 164.820312 104.046875 C 165.175781 103.394531 165.484375 102.722656 165.742188 102.019531 C 165.996094 101.320312 166.195312 100.609375 166.34375 99.875 C 166.488281 99.148438 166.578125 98.410156 166.609375 97.667969 C 166.640625 96.925781 166.617188 96.183594 166.535156 95.441406 C 166.457031 94.703125 166.320312 93.972656 166.125 93.257812 C 165.933594 92.539062 165.683594 91.835938 165.382812 91.15625 C 165.085938 90.476562 164.730469 89.820312 164.332031 89.195312 C 163.929688 88.566406 163.484375 87.976562 162.992188 87.417969 L 98.378906 14.222656 C 98.019531 13.816406 97.640625 13.433594 97.238281 13.070312 C 96.835938 12.707031 96.417969 12.371094 95.976562 12.054688 C 95.539062 11.734375 95.082031 11.445312 94.609375 11.179688 C 94.140625 10.914062 93.65625 10.675781 93.15625 10.464844 C 92.660156 10.253906 92.148438 10.070312 91.632812 9.917969 C 91.113281 9.761719 90.585938 9.636719 90.054688 9.539062 C 89.523438 9.445312 88.984375 9.378906 88.445312 9.34375 C 87.90625 9.304688 87.367188 9.300781 86.824219 9.324219 C 86.285156 9.347656 85.75 9.402344 85.214844 9.488281 C 84.675781 9.570312 84.152344 9.683594 83.628906 9.828125 C 83.105469 9.96875 82.59375 10.140625 82.089844 10.339844 C 81.589844 10.539062 81.097656 10.769531 80.621094 11.019531 C 80.144531 11.277344 79.683594 11.558594 79.234375 11.863281 C 78.789062 12.167969 78.363281 12.5 77.953125 12.855469 C 77.542969 13.207031 77.152344 13.582031 76.789062 13.980469 C 76.421875 14.378906 76.078125 14.792969 75.753906 15.230469 L 20.011719 91.101562 C 19.605469 91.660156 19.238281 92.242188 18.914062 92.851562 C 18.589844 93.457031 18.308594 94.085938 18.074219 94.734375 C 17.835938 95.382812 17.648438 96.042969 17.507812 96.71875 C 17.367188 97.390625 17.273438 98.074219 17.226562 98.761719 C 17.183594 99.449219 17.1875 100.136719 17.242188 100.824219 C 17.296875 101.511719 17.394531 102.191406 17.546875 102.863281 C 17.695312 103.539062 17.894531 104.199219 18.136719 104.84375 C 18.382812 105.488281 18.671875 106.113281 19 106.714844 C 19.335938 107.320312 19.710938 107.898438 20.125 108.449219 C 20.539062 108.996094 20.992188 109.519531 21.480469 110.003906 C 21.96875 110.488281 22.488281 110.9375 23.042969 111.351562 C 23.59375 111.765625 24.171875 112.136719 24.777344 112.464844 C 25.382812 112.796875 26.007812 113.082031 26.65625 113.324219 C 27.300781 113.5625 27.960938 113.757812 28.632812 113.90625 C 29.308594 114.050781 29.988281 114.152344 30.675781 114.199219 C 31.363281 114.25 32.050781 114.25 32.738281 114.203125 L 37.601562 113.863281 C 38.117188 113.832031 38.632812 113.820312 39.152344 113.84375 C 39.667969 113.863281 40.183594 113.910156 40.695312 113.984375 C 41.207031 114.058594 41.710938 114.164062 42.210938 114.292969 C 42.710938 114.421875 43.203125 114.574219 43.6875 114.757812 C 44.171875 114.9375 44.644531 115.148438 45.105469 115.378906 C 45.570312 115.613281 46.019531 115.867188 46.453125 116.148438 C 46.886719 116.425781 47.304688 116.730469 47.707031 117.054688 C 48.109375 117.378906 48.496094 117.722656 48.859375 118.089844 C 49.226562 118.457031 49.570312 118.839844 49.894531 119.242188 C 50.222656 119.644531 50.523438 120.0625 50.804688 120.5 C 51.082031 120.933594 51.339844 121.378906 51.570312 121.84375 C 51.804688 122.304688 52.007812 122.777344 52.191406 123.261719 C 52.371094 123.746094 52.53125 124.238281 52.660156 124.738281 C 52.789062 125.238281 52.890625 125.746094 52.964844 126.257812 C 53.039062 126.769531 53.085938 127.28125 53.109375 127.796875 C 53.128906 128.316406 53.121094 128.832031 53.085938 129.347656 L 38.75 350.226562 C 38.714844 350.726562 38.707031 351.21875 38.726562 351.714844 C 38.746094 352.210938 38.789062 352.703125 38.855469 353.195312 C 38.921875 353.683594 39.015625 354.171875 39.136719 354.652344 C 39.253906 355.132812 39.394531 355.609375 39.5625 356.074219 C 39.730469 356.542969 39.921875 357 40.132812 357.445312 C 40.347656 357.894531 40.582031 358.332031 40.839844 358.753906 C 41.097656 359.175781 41.378906 359.585938 41.679688 359.980469 C 41.976562 360.375 42.296875 360.753906 42.636719 361.113281 C 42.976562 361.476562 43.332031 361.820312 43.707031 362.144531 C 44.078125 362.46875 44.46875 362.777344 44.875 363.0625 C 45.277344 363.347656 45.699219 363.613281 46.128906 363.855469 C 46.5625 364.097656 47.007812 364.316406 47.460938 364.515625 C 47.917969 364.710938 48.382812 364.882812 48.851562 365.035156 C 49.324219 365.183594 49.804688 365.308594 50.289062 365.410156 C 50.777344 365.511719 51.261719 365.585938 51.757812 365.636719 C 52.25 365.6875 52.746094 365.714844 53.242188 365.714844 L 130.972656 365.714844 C 131.464844 365.714844 131.957031 365.6875 132.449219 365.636719 C 132.941406 365.585938 133.425781 365.511719 133.910156 365.410156 C 134.394531 365.3125 134.871094 365.1875 135.34375 365.039062 C 135.8125 364.890625 136.277344 364.71875 136.730469 364.519531 C 137.183594 364.324219 137.625 364.109375 138.058594 363.867188 C 138.488281 363.628906 138.90625 363.363281 139.3125 363.082031 C 139.714844 362.796875 140.105469 362.492188 140.476562 362.171875 C 140.851562 361.847656 141.207031 361.507812 141.542969 361.144531 C 141.882812 360.789062 142.203125 360.410156 142.503906 360.019531 C 142.804688 359.628906 143.082031 359.222656 143.34375 358.800781 C 143.605469 358.382812 143.839844 357.949219 144.054688 357.503906 C 144.269531 357.058594 144.460938 356.605469 144.632812 356.140625 C 144.796875 355.675781 144.941406 355.203125 145.0625 354.726562 C 145.1875 354.25 145.28125 353.765625 145.351562 353.273438 C 145.425781 352.785156 145.46875 352.296875 145.492188 351.800781 C 145.511719 351.308594 145.507812 350.816406 145.480469 350.324219 Z M 145.480469 350.324219 "/></g><g clip-rule="nonzero" clip-path="url(#f3d1b03c87)"><path style=" stroke:none;fill-rule:nonzero;fill:#febc10;fill-opacity:1;" d="M 350.335938 242.515625 C 344.636719 256.34375 343.054688 271.785156 337.804688 285.851562 C 335.890625 290.929688 330.328125 308.996094 322.375 308.089844 C 315.691406 307.335938 311.925781 295.308594 311.035156 290.171875 C 310.238281 285.558594 309.550781 280.375 311.332031 277.511719 C 312.980469 274.863281 316.878906 274.378906 321.066406 273.703125 C 330.246094 272.207031 324.117188 269.410156 326.246094 263.550781 C 327.21875 260.917969 334.269531 254.183594 333.09375 251.0625 C 329.382812 241.332031 297.832031 262.183594 294.363281 264.457031 C 293.097656 265.277344 291.121094 263.550781 290.90625 262.285156 C 289.476562 253.992188 290.503906 245.609375 289.789062 237.308594 C 286.628906 244.703125 286.046875 253.910156 285.644531 261.46875 C 285.179688 270.558594 284.171875 285.542969 290.90625 292.699219 C 291.226562 293.035156 291.433594 293.371094 291.558594 293.6875 C 291.6875 293.835938 291.753906 293.980469 291.796875 294.128906 C 293.457031 299.289062 297.585938 303.011719 298.507812 308.429688 C 299.019531 311.4375 298.238281 313.90625 298.074219 316.792969 C 297.683594 323.316406 298.507812 327.445312 302.300781 332.628906 C 309.128906 341.933594 317.503906 348.613281 318.285156 360.886719 C 318.328125 361.4375 317.882812 361.84375 317.339844 361.816406 C 309.523438 361.457031 295.902344 366.472656 290.449219 358.632812 C 286.273438 352.636719 291.648438 345.808594 289.582031 339.179688 C 286.800781 330.144531 277.578125 322.683594 272.078125 315.214844 C 265.28125 305.96875 258.222656 298.027344 249.964844 290.039062 C 243.671875 283.976562 237.476562 277.644531 232.953125 270.125 C 225.808594 258.222656 224.066406 245.273438 225.6875 232.175781 C 222.972656 236.886719 220.90625 241.816406 220.464844 247.632812 C 219.722656 257.695312 222.613281 267.65625 223.960938 277.578125 C 224.039062 278.128906 223.558594 278.546875 223.03125 278.507812 C 207.21875 277.363281 188.808594 267.304688 174.632812 278.589844 C 161.957031 288.675781 159.199219 311 166.949219 324.558594 C 171.859375 333.15625 182.09375 336.925781 183.714844 347.308594 C 184.769531 354.109375 187.226562 361.058594 178.953125 361.035156 C 171.203125 361.019531 159.660156 363.289062 155.175781 358.824219 C 153.195312 356.867188 154.230469 352.570312 154.757812 347.9375 C 156.066406 336.710938 150.453125 331.847656 142.179688 325.652344 C 138.664062 323.023438 135.320312 320.371094 132.265625 317.171875 C 126.113281 310.679688 120.363281 302.324219 119.902344 293.101562 C 119.457031 284.234375 124.03125 277.890625 130.554688 273.175781 C 126.625 275.472656 122.804688 278.1875 119.078125 281.34375 C 107.726562 290.953125 98.777344 304.769531 85.65625 311.921875 C 79.195312 315.460938 73.800781 318.898438 69.167969 324.734375 C 67.085938 327.324219 65.039062 330.054688 63.203125 332.816406 C 60.179688 337.425781 62.09375 340.988281 64.875 345.308594 C 67.359375 349.140625 73.53125 355.855469 70.007812 360.832031 C 66.363281 365.921875 49.328125 363.710938 44.488281 361.941406 C 40.613281 360.578125 42.402344 358.320312 41.980469 354.132812 C 41.667969 350.84375 43.03125 347.242188 43.75 344.082031 C 44.925781 338.71875 45.519531 333.195312 46.421875 327.761719 C 48.71875 314.285156 52.28125 301.5 58.03125 289.09375 C 64.6875 274.675781 56.425781 264.035156 55.585938 249.699219 C 54.886719 237.390625 60.488281 225.832031 63.484375 214.101562 C 53.480469 213.03125 46.71875 197.996094 54.132812 188.773438 C 66.46875 173.398438 88.417969 171.792969 104.363281 166.027344 C 114.636719 162.339844 123.183594 156.566406 128.40625 146.964844 C 132.660156 139.175781 136.710938 126.351562 133.863281 117.414062 C 130.875 107.9375 121.984375 106.820312 113.945312 110.085938 C 110.679688 111.417969 107.308594 112.890625 103.6875 112.152344 C 100.90625 111.609375 100.4375 110.273438 98.292969 108.992188 C 93.765625 106.210938 101.433594 106.953125 90.582031 104.992188 C 88.753906 104.671875 86.609375 104.953125 84.710938 104.65625 C 83.738281 104.484375 82.160156 102.945312 82.304688 101.875 C 85.21875 80.410156 120.15625 91.511719 130.285156 100.742188 C 149.402344 118.171875 146.648438 143.96875 127.109375 161.058594 C 116.40625 170.402344 106.335938 175.058594 89.851562 178.597656 C 83.46875 179.960938 77.214844 182.160156 71.25 184.996094 C 66.617188 187.210938 57.101562 195.511719 65.929688 197.550781 C 70.140625 198.535156 76.179688 196.414062 80.050781 194.753906 C 88.097656 191.3125 95.75 186.722656 103.6875 183.023438 C 121.078125 174.871094 139.53125 169.523438 156.921875 161.476562 C 173.6875 153.703125 189.144531 143.617188 204.503906 133.402344 C 208.351562 130.847656 211.917969 128.21875 215.050781 125.378906 C 209.300781 127.566406 203.78125 126.449219 197.78125 126.496094 C 193.652344 126.539062 190.765625 127.742188 186.957031 129.375 C 177.035156 133.652344 169.394531 135.382812 160.378906 128.242188 C 154.730469 123.796875 148.695312 116.550781 148.898438 108.882812 C 149.007812 105.222656 150.859375 101.28125 153.933594 99.175781 C 156.394531 97.515625 160.210938 97.789062 162.441406 95.722656 C 164.507812 93.804688 164.546875 89.847656 165.664062 87.386719 C 167.519531 83.34375 170.660156 80.878906 173.523438 77.589844 C 175.667969 75.171875 180.21875 66.789062 177.925781 63.0625 C 175.777344 59.527344 166.425781 61.121094 162.804688 59.757812 C 159.832031 58.59375 157.347656 56.554688 155.175781 54.257812 C 149.765625 48.507812 146.035156 40.398438 148.695312 32.582031 C 149.195312 31.027344 151.367188 32.917969 151.855469 33.472656 C 161.875 45.351562 175.226562 40.191406 188.035156 43.976562 C 191.507812 44.988281 194.8125 46.675781 198.136719 48.066406 C 200.429688 48.996094 215.765625 55.730469 211.511719 46.363281 C 210.609375 44.363281 202.25 41.304688 200.226562 40.0625 C 197.066406 38.167969 193.972656 36.078125 191.398438 33.363281 C 186.742188 28.394531 185.484375 22.96875 189.085938 16.960938 C 190.140625 15.234375 192.371094 17.742188 192.75 18.8125 C 198.308594 34.253906 217.996094 28.371094 230.195312 33.472656 C 234.027344 35.027344 236.59375 37.265625 238.890625 40.652344 C 241.359375 44.339844 243.375 48.527344 247.378906 50.953125 C 251.59375 53.480469 257.929688 52.34375 262.394531 51.519531 C 263.910156 51.222656 266.394531 53.4375 265.378906 54.992188 C 259.53125 64.007812 250.515625 69.585938 240.363281 71.503906 C 247.019531 71.316406 253.78125 68.9375 259.777344 72.878906 C 261.742188 74.175781 263.125 76.011719 264.625 77.761719 C 268.441406 82.246094 272.695312 85.824219 277.136719 89.660156 C 291.730469 102.277344 306.515625 116.535156 313.695312 134.816406 C 321.46875 154.738281 318.664062 173.332031 319.972656 193.988281 C 320.621094 204.285156 323.765625 214.667969 320.015625 224.765625 C 317.609375 231.179688 313.042969 236.363281 308.832031 241.734375 C 319.59375 237.011719 325.804688 219.875 328.332031 210.023438 C 328.542969 209.199219 329.636719 209.496094 330.140625 209.726562 C 336.1875 212.503906 340.398438 216.839844 346.988281 218.800781 C 349.859375 219.636719 352.65625 220.191406 354.886719 222.335938 C 362.59375 229.832031 353.074219 235.835938 350.335938 242.515625 "/></g></g></svg>