<svg xmlns="http://www.w3.org/2000/svg" xmlns:xlink="http://www.w3.org/1999/xlink" width="500" zoomAndPan="magnify" viewBox="0 0 375 374.999991" height="500" preserveAspectRatio="xMidYMid meet" version="1.0"><defs><clipPath id="692dd6c1ba"><path d="M 22.15625 107.546875 L 276.550781 107.546875 L 276.550781 262.726562 L 22.15625 262.726562 Z M 22.15625 107.546875 " clip-rule="nonzero"/></clipPath><clipPath id="d47b0c0dd8"><path d="M 19.800781 262 L 355.050781 262 L 355.050781 270.191406 L 19.800781 270.191406 Z M 19.800781 262 " clip-rule="nonzero"/></clipPath><clipPath id="2ba6056ac9"><path d="M 279.578125 104.441406 L 346.371094 104.441406 L 346.371094 253.71875 L 279.578125 253.71875 Z M 279.578125 104.441406 " clip-rule="nonzero"/></clipPath></defs><g clip-path="url(#692dd6c1ba)"><path fill="#39b54a" d="M 276.1875 195.003906 C 275.230469 194.507812 274.1875 196.867188 269.703125 199.421875 C 265.992188 201.53125 258.386719 201.90625 254.726562 200.941406 C 251.214844 200.015625 246.765625 197.84375 243.519531 192.429688 C 245.671875 193.597656 248.019531 194.449219 250.476562 195.039062 C 255.929688 196.351562 263.726562 195.933594 268.625 191.863281 C 272.277344 188.828125 274.808594 185.507812 274.285156 185.234375 C 273.324219 184.738281 272.28125 187.101562 267.796875 189.65625 C 264.089844 191.765625 256.480469 192.136719 252.824219 191.171875 C 250.660156 190.601562 248.140625 189.554688 245.765625 187.574219 C 243.585938 185.75 242.277344 183.101562 242.035156 180.273438 C 241.140625 169.898438 238.097656 159 231.289062 150.035156 C 224.527344 141.140625 213.328125 135.800781 203.722656 129.574219 C 196.089844 124.625 186.203125 116.824219 178.117188 111.785156 C 166.429688 104.503906 151.269531 107.792969 140.101562 115.023438 C 126.390625 123.894531 113.359375 133.460938 98.644531 140.660156 C 85.660156 147.011719 71.296875 150.304688 58.550781 157.152344 C 54.847656 159.136719 51.777344 161.441406 48.757812 163.3125 C 41.289062 167.945312 28.75 168.089844 32.402344 160.902344 C 35.652344 154.503906 48.59375 151.679688 54.015625 150.058594 C 59.9375 148.289062 67.867188 146.15625 70 140.113281 C 72.152344 134.019531 69.171875 124.996094 65.289062 120.242188 C 62.160156 116.410156 59.113281 113.800781 55.484375 112.957031 C 52.769531 112.324219 46.015625 112.988281 46.054688 114.246094 C 46.09375 115.535156 53.777344 114.703125 53.160156 119.886719 C 52.753906 123.257812 53.523438 127.8125 58.339844 128.234375 C 63.03125 128.644531 65.464844 127.679688 67.65625 133.242188 C 68.882812 136.355469 68.359375 140.175781 65.863281 142.652344 C 62.195312 146.289062 51.488281 148.53125 44.589844 150.230469 C 38.464844 151.738281 28.238281 155.519531 26.765625 163.011719 C 25.703125 168.40625 31.714844 170.324219 35.949219 172.503906 C 37.59375 173.351562 38.289062 175.316406 37.574219 177.027344 C 34.941406 183.308594 34.335938 190.925781 35.746094 200.78125 C 36.621094 206.9375 36.667969 210.082031 35.746094 216.375 C 34.726562 223.300781 29.660156 226.296875 28.3125 231.121094 C 27.71875 233.257812 27.679688 235.542969 27.226562 239.21875 C 26.996094 241.09375 26.558594 242.511719 25.546875 244.175781 C 24.664062 245.628906 23.480469 246.367188 23.453125 247.496094 C 23.429688 248.570312 23.960938 249.722656 24.105469 250.78125 C 24.226562 251.648438 24.1875 252.652344 23.632812 254.039062 C 22.941406 255.789062 22.144531 259.140625 22.65625 260.554688 C 23.347656 262.480469 28.050781 262.429688 30.203125 262.402344 C 35.125 262.339844 37.691406 261.480469 36.902344 258.703125 C 35.667969 254.390625 32.109375 252.535156 30.8125 249.820312 C 29.453125 246.972656 32.285156 244.875 37.074219 237.523438 C 40.433594 232.367188 50.648438 229.570312 59.664062 222.175781 C 68.722656 214.75 70.160156 209.023438 81.421875 206 C 84.160156 205.265625 90.035156 204.332031 93.710938 204.714844 C 89.683594 205.304688 83.613281 206.507812 80.304688 208.050781 C 75.457031 210.308594 72.496094 212.429688 70.023438 214.957031 C 68.371094 216.644531 68.285156 219.320312 69.804688 221.132812 C 70.007812 221.378906 70.214844 221.625 70.417969 221.859375 C 74.25 226.363281 79.058594 229.707031 83.109375 232.851562 C 86.523438 235.496094 88.21875 237.652344 89.09375 239.339844 C 90.15625 241.398438 89.445312 242.089844 90.089844 243.394531 C 90.945312 245.128906 92.328125 244.242188 92.875 246.117188 C 93.421875 247.976562 91.207031 250.523438 92.261719 253.511719 C 92.765625 254.949219 97.734375 255.367188 100.183594 255.339844 C 105.792969 255.277344 108.554688 254.609375 107.171875 251.9375 C 103.839844 245.488281 100.246094 244.125 98.402344 240.292969 C 96.164062 235.652344 94.253906 231.414062 93.191406 228.460938 C 91.398438 223.488281 93.5625 218.148438 96.691406 214.273438 C 98.476562 212.0625 102.25 209.894531 106.402344 209.355469 C 109.933594 208.894531 115.8125 210.183594 121.714844 211.960938 C 122.910156 212.320312 123.929688 211.035156 123.3125 209.949219 C 120.011719 204.125 119.667969 197.832031 120.417969 192.21875 C 120.753906 197.964844 122.863281 204.21875 127.320312 209.304688 C 130.105469 212.480469 142.503906 221.851562 148.523438 229.335938 C 150.21875 231.449219 150.761719 234.046875 152.027344 235.734375 C 153.078125 237.136719 155.105469 238.328125 156.496094 239.503906 C 158.769531 241.433594 159.910156 243.449219 160.558594 245.300781 C 161.339844 247.535156 160.828125 247.65625 161.429688 249.019531 C 162.230469 250.828125 163.53125 250.40625 163.980469 252.035156 C 164.515625 253.96875 162.746094 257.371094 163.59375 260.777344 C 163.976562 262.304688 168.957031 262.585938 171.25 262.558594 C 176.5 262.492188 179.601562 261.695312 178.441406 258.84375 C 175.734375 252.1875 172.125 249.691406 169.933594 245.925781 C 168 242.597656 166.5625 240.660156 165.5625 237.574219 C 165.027344 235.910156 165.695312 232.742188 165.019531 230.234375 C 163.886719 226.023438 161.121094 224.5625 161.71875 221.242188 C 163.121094 213.46875 164.34375 198.074219 162.570312 184.71875 C 165.882812 192.988281 165.554688 205.109375 164.371094 215.660156 C 164.121094 217.886719 165.933594 219.816406 168.167969 219.671875 C 175.546875 219.1875 183.324219 215.71875 188.003906 212.277344 C 184.703125 215.359375 180.558594 217.988281 177.445312 219.46875 C 176.054688 220.128906 175.4375 221.78125 176.066406 223.191406 C 177.28125 225.902344 179.382812 228.933594 180.875 230.433594 C 182.070312 231.636719 183.953125 232.898438 185.339844 234.015625 C 187.621094 235.851562 188.757812 237.769531 189.402344 239.527344 C 190.1875 241.65625 189.671875 241.769531 190.277344 243.066406 C 191.074219 244.785156 192.378906 244.390625 192.828125 245.933594 C 193.359375 247.777344 191.589844 251.011719 192.441406 254.25 C 192.824219 255.703125 197.804688 255.96875 200.097656 255.941406 C 205.34375 255.878906 208.449219 255.121094 207.289062 252.410156 C 204.582031 246.082031 200.972656 243.703125 198.78125 240.121094 C 196.847656 236.960938 195.40625 235.113281 194.410156 232.179688 C 193.871094 230.597656 194.542969 227.585938 193.867188 225.203125 C 192.730469 221.195312 191.277344 219.316406 191.246094 216.101562 C 191.199219 211.039062 195.375 209.660156 194.554688 204.78125 C 192.617188 193.277344 198.175781 181.445312 210.367188 177.90625 C 195.007812 184.613281 196.527344 197.066406 196.917969 201.476562 C 197.367188 206.542969 200.058594 210.53125 200.796875 215.414062 C 201.222656 218.25 198.304688 220.34375 199.664062 222.273438 C 201.050781 224.25 202.835938 223.742188 204.449219 225.234375 C 205.632812 226.332031 211.5 230.570312 216.121094 228.863281 C 218.730469 227.898438 220.898438 225.03125 220.574219 222.136719 C 220.464844 221.179688 220.597656 220.210938 221.027344 219.351562 C 221.992188 217.417969 226.574219 210.9375 227.648438 209.636719 C 228.425781 208.699219 229.164062 207.550781 230.496094 207.503906 C 231.273438 207.480469 232.023438 207.609375 232.777344 207.460938 C 235.203125 206.996094 238.859375 201.726562 239.148438 200.753906 C 239.367188 200.007812 239.390625 199.0625 238.898438 198.496094 C 237.527344 196.917969 235.835938 192.691406 235.742188 190.628906 C 236.089844 192.082031 236.710938 193.484375 237.410156 194.636719 C 240.824219 200.273438 246.265625 203.332031 252.382812 204.808594 C 257.832031 206.117188 265.632812 205.703125 270.53125 201.632812 C 274.183594 198.59375 276.714844 195.277344 276.1875 195.003906 " fill-opacity="1" fill-rule="nonzero"/></g><g clip-path="url(#d47b0c0dd8)"><path stroke-linecap="butt" transform="matrix(0.473739, 0.000000000000000076, -0.000000000000000076, 0.47397, 19.804449, 262.37424)" fill="none" stroke-linejoin="miter" d="M 0.000503527 9.998618 L 707.659662 9.998618 " stroke="#000000" stroke-width="20" stroke-opacity="1" stroke-miterlimit="4"/></g><g clip-path="url(#2ba6056ac9)"><path fill="#39b54a" d="M 329.632812 216.339844 L 329.632812 179.03125 L 346.316406 179.03125 L 312.945312 104.417969 L 279.578125 179.03125 L 296.261719 179.03125 L 296.261719 216.339844 Z M 329.632812 238.722656 L 329.632812 223.800781 L 296.261719 223.800781 L 296.261719 238.722656 Z M 329.632812 253.644531 L 329.632812 246.183594 L 296.261719 246.183594 L 296.261719 253.644531 Z M 329.632812 253.644531 " fill-opacity="1" fill-rule="nonzero"/></g></svg>