<svg width="200" height="200" viewBox="0 0 200 200" xmlns="http://www.w3.org/2000/svg">
  <!-- Cyberpunk Male Pixel Character -->
  <!-- Head -->
  <rect x="70" y="30" width="60" height="60" fill="#1a1a1a"/>
  
  <!-- Visor/Eyes (Glowing) -->
  <rect x="75" y="45" width="20" height="8" class="cyber-accent"/>
  <rect x="105" y="45" width="20" height="8" class="cyber-accent"/>
  
  <!-- Mohawk/Hair -->
  <rect x="80" y="20" width="10" height="15" class="cyber-accent"/>
  <rect x="90" y="15" width="10" height="20" class="cyber-accent"/>
  <rect x="100" y="20" width="10" height="15" class="cyber-accent"/>
  
  <!-- Neck -->
  <rect x="85" y="90" width="30" height="15" fill="#2a2a2a"/>
  
  <!-- Shoulders/Jacket -->
  <rect x="50" y="105" width="100" height="20" fill="#1a1a1a"/>
  
  <!-- Cyber Implants/Details -->
  <rect x="60" y="50" width="5" height="20" class="cyber-accent"/>
  <rect x="135" y="50" width="5" height="20" class="cyber-accent"/>
  
  <!-- Chest Armor -->
  <rect x="70" y="125" width="60" height="50" fill="#0a0a0a"/>
  <rect x="90" y="135" width="20" height="30" class="cyber-accent" opacity="0.3"/>
  
  <!-- Arms -->
  <rect x="50" y="125" width="15" height="45" fill="#2a2a2a"/>
  <rect x="135" y="125" width="15" height="45" fill="#2a2a2a"/>
  
  <!-- Cyber Lines on Arms -->
  <rect x="52" y="130" width="11" height="2" class="cyber-accent"/>
  <rect x="52" y="140" width="11" height="2" class="cyber-accent"/>
  <rect x="137" y="130" width="11" height="2" class="cyber-accent"/>
  <rect x="137" y="140" width="11" height="2" class="cyber-accent"/>
  
  <!-- Utility Belt -->
  <rect x="75" y="170" width="50" height="8" class="cyber-accent"/>
  
  <!-- Style for accent color that will be customizable -->
  <style>
    .cyber-accent { fill: #00ffff; }
  </style>
</svg>

