<svg width="200" height="200" viewBox="0 0 200 200" xmlns="http://www.w3.org/2000/svg">
  <!-- Cyberpunk Female Pixel Character -->
  <!-- Head -->
  <rect x="75" y="35" width="50" height="50" fill="#1a1a1a"/>
  
  <!-- Visor/Eyes (Glowing) -->
  <rect x="80" y="50" width="15" height="6" class="cyber-accent"/>
  <rect x="105" y="50" width="15" height="6" class="cyber-accent"/>
  
  <!-- Ponytail/Hair -->
  <rect x="125" y="40" width="10" height="35" class="cyber-accent"/>
  <rect x="135" y="45" width="8" height="25" class="cyber-accent"/>
  <rect x="143" y="50" width="6" height="15" class="cyber-accent"/>
  
  <!-- Hair Bangs -->
  <rect x="70" y="30" width="10" height="10" class="cyber-accent"/>
  <rect x="80" y="25" width="40" height="10" class="cyber-accent"/>
  
  <!-- Neck -->
  <rect x="85" y="85" width="30" height="12" fill="#2a2a2a"/>
  
  <!-- Shoulders/Jacket -->
  <rect x="55" y="97" width="90" height="18" fill="#1a1a1a"/>
  
  <!-- Cyber Implants/Details (Face) -->
  <rect x="125" y="55" width="3" height="15" class="cyber-accent"/>
  <rect x="72" y="55" width="3" height="15" class="cyber-accent"/>
  
  <!-- Chest/Torso -->
  <rect x="75" y="115" width="50" height="45" fill="#0a0a0a"/>
  
  <!-- Cyber Core -->
  <circle cx="100" cy="135" r="8" class="cyber-accent" opacity="0.4"/>
  <circle cx="100" cy="135" r="4" class="cyber-accent"/>
  
  <!-- Arms -->
  <rect x="55" y="115" width="15" height="40" fill="#2a2a2a"/>
  <rect x="130" y="115" width="15" height="40" fill="#2a2a2a"/>
  
  <!-- Cyber Lines on Arms -->
  <rect x="57" y="120" width="11" height="2" class="cyber-accent"/>
  <rect x="57" y="130" width="11" height="2" class="cyber-accent"/>
  <rect x="132" y="120" width="11" height="2" class="cyber-accent"/>
  <rect x="132" y="130" width="11" height="2" class="cyber-accent"/>
  
  <!-- Utility Belt/Hip -->
  <rect x="80" y="155" width="40" height="6" class="cyber-accent"/>
  <circle cx="90" cy="158" r="3" fill="#1a1a1a"/>
  <circle cx="110" cy="158" r="3" fill="#1a1a1a"/>
  
  <!-- Style for accent color that will be customizable -->
  <style>
    .cyber-accent { fill: #ff00ff; }
  </style>
</svg>

